<?xml version="1.0" encoding="UTF-8" standalone="no"?>
<!DOCTYPE svg PUBLIC "-//W3C//DTD SVG 1.1//EN"
"http://www.w3.org/Graphics/SVG/1.1/DTD/svg11.dtd">
<svg viewBox="0 0 1210 935" version="1.1" xmlns="http://www.w3.org/2000/svg" xmlns:xlink="http://www.w3.org/1999/xlink">
<defs>
<style type="text/css"><![CDATA[
.g0_9{
fill: none;
stroke: #000;
stroke-width: 1.527;
stroke-miterlimit: 10;
}
]]></style>
</defs>
<path d="M76.4,115.3H426.3m0,0H638.6m0,0H759.3m0,0H1155M77.2,114.6v36.3M427,114.6v36.3M639.4,114.6v36.3M760.1,114.6v36.3m395.7,-36.3v36.3M76.4,150.1H426.3m0,0H638.6m0,0H759.3m0,0H1155" class="g0_9"/>
<image preserveAspectRatio="none" x="646" y="157" width="19" height="18" xlink:href="img/1.png"/>
<path d="M77.2,149.4v63.4M427,149.4v63.4M639.4,149.4v63.4M760.1,149.4v63.4m395.7,-63.4v63.4M76.4,212H426.3m0,0H638.6m0,0H759.3m0,0H1155" class="g0_9"/>
<image preserveAspectRatio="none" x="646" y="225" width="19" height="18" xlink:href="img/2.png"/>
<path d="M77.2,211.3v63.4M427,211.3v63.4M639.4,211.3v63.4M760.1,211.3v63.4m395.7,-63.4v63.4M76.4,273.9H426.3m0,0H638.6m0,0H759.3m0,0H1155" class="g0_9"/>
<image preserveAspectRatio="none" x="646" y="287" width="19" height="18" xlink:href="img/3.png"/>
<path d="M77.2,273.2v90.5M427,273.2v90.5M639.4,273.2v90.5M760.1,273.2v90.5m395.7,-90.5v90.5M76.4,363H426.3m0,0H638.6m0,0H759.3m0,0H1155" class="g0_9"/>
<image preserveAspectRatio="none" x="646" y="376" width="19" height="18" xlink:href="img/4.png"/>
<path d="M77.2,362.2v42.4M427,362.2v42.4M639.4,362.2v42.4M760.1,362.2v42.4m395.7,-42.4v42.4M76.4,403.9H426.3m0,0H638.6m0,0H759.3m0,0H1155" class="g0_9"/>
<image preserveAspectRatio="none" x="646" y="417" width="19" height="18" xlink:href="img/5.png"/>
<path d="M77.2,403.1v42.4M427,403.1v42.4M639.4,403.1v42.4M760.1,403.1v42.4m395.7,-42.4v42.4M76.4,444.7H426.3m0,0H638.6m0,0H759.3m0,0H1155" class="g0_9"/>
<image preserveAspectRatio="none" x="646" y="458" width="19" height="18" xlink:href="img/6.png"/>
<path d="M77.2,444v42.4M427,444v42.4M639.4,444v42.4M760.1,444v42.4M1155.8,444v42.4M76.4,485.6H426.3m0,0H638.6m0,0H759.3m0,0H1155" class="g0_9"/>
<image preserveAspectRatio="none" x="646" y="499" width="19" height="18" xlink:href="img/7.png"/>
<path d="M77.2,484.9v42.4M427,484.9v42.4M639.4,484.9v42.4M760.1,484.9v42.4m395.7,-42.4v42.4M76.4,526.5H426.3m0,0H638.6m0,0H759.3m0,0H1155" class="g0_9"/>
<image preserveAspectRatio="none" x="646" y="539" width="19" height="19" xlink:href="img/8.png"/>
<path d="M77.2,525.7v63.5M427,525.7v63.5M639.4,525.7v63.5M760.1,525.7v63.5m395.7,-63.5v63.5M76.4,588.4H426.3m0,0H638.6m0,0H759.3m0,0H1155" class="g0_9"/>
<image preserveAspectRatio="none" x="646" y="601" width="19" height="19" xlink:href="img/9.png"/>
<path d="M77.2,587.6v63.5M427,587.6v63.5M639.4,587.6v63.5M760.1,587.6v63.5m395.7,-63.5v63.5M76.4,650.3H426.3m0,0H638.6m0,0H759.3m0,0H1155" class="g0_9"/>
<image preserveAspectRatio="none" x="646" y="663" width="19" height="19" xlink:href="img/10.png"/>
<path d="M77.2,649.6V713M427,649.6V713M639.4,649.6V713M760.1,649.6V713m395.7,-63.4V713M76.4,712.2H426.3m0,0H638.6m0,0H759.3m0,0H1155" class="g0_9"/>
<image preserveAspectRatio="none" x="646" y="725" width="19" height="19" xlink:href="img/11.png"/>
<path d="M77.2,711.5V802M427,711.5V802M639.4,711.5V802M760.1,711.5V802m395.7,-90.5V802M76.4,801.3H426.3m0,0H638.6m0,0H759.3m0,0H1155M77.2,800.5v18.3M427,800.5v18.3M639.4,800.5v18.3M760.1,800.5v18.3m395.7,-18.3v18.3M76.4,818.1H426.3m0,0H638.6m0,0H759.3m0,0H1155" class="g0_9"/>
<image preserveAspectRatio="none" x="227" y="859" width="46" height="30" xlink:href="img/12.png"/>
</svg>