<?xml version="1.0" encoding="UTF-8" standalone="no"?>
<!DOCTYPE svg PUBLIC "-//W3C//DTD SVG 1.1//EN"
"http://www.w3.org/Graphics/SVG/1.1/DTD/svg11.dtd">
<svg viewBox="0 0 1210 935" version="1.1" xmlns="http://www.w3.org/2000/svg" xmlns:xlink="http://www.w3.org/1999/xlink">
<defs>
<style type="text/css"><![CDATA[
.g0_7{
fill: none;
stroke: #000;
stroke-width: 1.527;
stroke-miterlimit: 10;
}
]]></style>
</defs>
<path d="M76.4,320.6H426.3m0,0H638.6m0,0H759.3m0,0H1155M77.2,319.8v36.3M427,319.8v36.3M639.4,319.8v36.3M760.1,319.8v36.3m395.7,-36.3v36.3M76.4,355.3H426.3m0,0H638.6m0,0H759.3m0,0H1155" class="g0_7"/>
<image preserveAspectRatio="none" x="646" y="368" width="19" height="19" xlink:href="img/1.png"/>
<path d="M77.2,354.6V397M427,354.6V397M639.4,354.6V397M760.1,354.6V397m395.7,-42.4V397M76.4,396.2H426.3m0,0H638.6m0,0H759.3m0,0H1155" class="g0_7"/>
<image preserveAspectRatio="none" x="646" y="409" width="19" height="19" xlink:href="img/2.png"/>
<path d="M77.2,395.4v42.5M427,395.4v42.5M639.4,395.4v42.5M760.1,395.4v42.5m395.7,-42.5v42.5M76.4,437.1H426.3m0,0H638.6m0,0H759.3m0,0H1155" class="g0_7"/>
<image preserveAspectRatio="none" x="646" y="450" width="19" height="18" xlink:href="img/3.png"/>
<path d="M77.2,436.3v42.4M427,436.3v42.4M639.4,436.3v42.4M760.1,436.3v42.4m395.7,-42.4v42.4M76.4,478H426.3m0,0H638.6m0,0H759.3m0,0H1155" class="g0_7"/>
<image preserveAspectRatio="none" x="646" y="491" width="19" height="18" xlink:href="img/4.png"/>
<path d="M77.2,477.2v42.4M427,477.2v42.4M639.4,477.2v42.4M760.1,477.2v42.4m395.7,-42.4v42.4M76.4,518.9H426.3m0,0H638.6m0,0H759.3m0,0H1155" class="g0_7"/>
<image preserveAspectRatio="none" x="646" y="532" width="19" height="18" xlink:href="img/5.png"/>
<path d="M77.2,518.1v42.4M427,518.1v42.4M639.4,518.1v42.4M760.1,518.1v42.4m395.7,-42.4v42.4M76.4,559.7H426.3m0,0H638.6m0,0H759.3m0,0H1155" class="g0_7"/>
<image preserveAspectRatio="none" x="646" y="573" width="19" height="18" xlink:href="img/6.png"/>
<path d="M77.2,559v42.4M427,559v42.4M639.4,559v42.4M760.1,559v42.4M1155.8,559v42.4M76.4,600.6H426.3m0,0H638.6m0,0H759.3m0,0H1155" class="g0_7"/>
<image preserveAspectRatio="none" x="646" y="614" width="19" height="18" xlink:href="img/7.png"/>
<path d="M77.2,599.9v42.4M427,599.9v42.4M639.4,599.9v42.4M760.1,599.9v42.4m395.7,-42.4v42.4M76.4,641.5H426.3m0,0H638.6m0,0H759.3m0,0H1155" class="g0_7"/>
<image preserveAspectRatio="none" x="646" y="654" width="19" height="19" xlink:href="img/8.png"/>
<path d="M77.2,640.7v63.5M427,640.7v63.5M639.4,640.7v63.5M760.1,640.7v63.5m395.7,-63.5v63.5M76.4,703.4H426.3m0,0H638.6m0,0H759.3m0,0H1155" class="g0_7"/>
<image preserveAspectRatio="none" x="646" y="716" width="19" height="19" xlink:href="img/9.png"/>
<path d="M77.2,702.7v42.4M427,702.7v42.4M639.4,702.7v42.4M760.1,702.7v42.4m395.7,-42.4v42.4M76.4,744.3H426.3m0,0H638.6m0,0H759.3m0,0H1155" class="g0_7"/>
<image preserveAspectRatio="none" x="646" y="757" width="19" height="19" xlink:href="img/10.png"/>
<path d="M77.2,743.5V786M427,743.5V786M639.4,743.5V786M760.1,743.5V786m395.7,-42.5V786M76.4,785.2H426.3m0,0H638.6m0,0H759.3m0,0H1155M77.2,784.4v18.4M427,784.4v18.4M639.4,784.4v18.4M760.1,784.4v18.4m395.7,-18.4v18.4M76.4,802H426.3m0,0H638.6m0,0H759.3m0,0H1155" class="g0_7"/>
<image preserveAspectRatio="none" x="227" y="859" width="46" height="30" xlink:href="img/11.png"/>
</svg>