<?xml version="1.0" encoding="UTF-8" standalone="no"?>
<!DOCTYPE svg PUBLIC "-//W3C//DTD SVG 1.1//EN"
"http://www.w3.org/Graphics/SVG/1.1/DTD/svg11.dtd">
<svg viewBox="0 0 1210 935" version="1.1" xmlns="http://www.w3.org/2000/svg" xmlns:xlink="http://www.w3.org/1999/xlink">
<defs>
<style type="text/css"><![CDATA[
.g0_24{
fill: none;
stroke: #000;
stroke-width: 1.527;
stroke-miterlimit: 10;
}
]]></style>
</defs>
<path d="M76.4,115.3H426.3m0,0H638.6m0,0H759.3m0,0H1155M77.2,114.6v36.3M427,114.6v36.3M639.4,114.6v36.3M760.1,114.6v36.3m395.7,-36.3v36.3M76.4,150.1H426.3m0,0H638.6m0,0H759.3m0,0H1155M77.2,149.4v36.3M427,149.4v36.3M639.4,149.4v36.3M760.1,149.4v36.3m395.7,-36.3v36.3M76.4,184.9H426.3m0,0H638.6m0,0H759.3m0,0H1155" class="g0_24"/>
<image preserveAspectRatio="none" x="646" y="195" width="19" height="18" xlink:href="img/1.png"/>
<path d="M77.2,184.1v63.5M427,184.1v63.5M639.4,184.1v63.5M760.1,184.1v63.5m395.7,-63.5v63.5M76.4,246.8H426.3m0,0H638.6m0,0H759.3m0,0H1155" class="g0_24"/>
<image preserveAspectRatio="none" x="646" y="257" width="19" height="18" xlink:href="img/2.png"/>
<path d="M77.2,246v63.5M427,246v63.5M639.4,246v63.5M760.1,246v63.5M1155.8,246v63.5M76.4,308.7H426.3m0,0H638.6m0,0H759.3m0,0H1155" class="g0_24"/>
<image preserveAspectRatio="none" x="646" y="319" width="19" height="18" xlink:href="img/3.png"/>
<path d="M77.2,307.9v63.5M427,307.9v63.5M639.4,307.9v63.5M760.1,307.9v63.5m395.7,-63.5v63.5M76.4,370.6H426.3m0,0H638.6m0,0H759.3m0,0H1155" class="g0_24"/>
<image preserveAspectRatio="none" x="646" y="381" width="19" height="18" xlink:href="img/4.png"/>
<path d="M77.2,369.8v63.5M427,369.8v63.5M639.4,369.8v63.5M760.1,369.8v63.5m395.7,-63.5v63.5M76.4,432.5H426.3m0,0H638.6m0,0H759.3m0,0H1155" class="g0_24"/>
<image preserveAspectRatio="none" x="646" y="442" width="19" height="19" xlink:href="img/5.png"/>
<path d="M77.2,431.8v63.4M427,431.8v63.4M639.4,431.8v63.4M760.1,431.8v63.4m395.7,-63.4v63.4M76.4,494.4H426.3m0,0H638.6m0,0H759.3m0,0H1155" class="g0_24"/>
<image preserveAspectRatio="none" x="646" y="504" width="19" height="19" xlink:href="img/6.png"/>
<path d="M77.2,493.7v90.5M427,493.7v90.5M639.4,493.7v90.5M760.1,493.7v90.5m395.7,-90.5v90.5M76.4,583.5H426.3m0,0H638.6m0,0H759.3m0,0H1155" class="g0_24"/>
<image preserveAspectRatio="none" x="646" y="593" width="19" height="19" xlink:href="img/7.png"/>
<path d="M77.2,582.7v42.4M427,582.7v42.4M639.4,582.7v42.4M760.1,582.7v42.4m395.7,-42.4v42.4M76.4,624.3H426.3m0,0H638.6m0,0H759.3m0,0H1155" class="g0_24"/>
<image preserveAspectRatio="none" x="646" y="634" width="19" height="19" xlink:href="img/8.png"/>
<path d="M77.2,623.6V687M427,623.6V687M639.4,623.6V687M760.1,623.6V687m395.7,-63.4V687M76.4,686.2H426.3m0,0H638.6m0,0H759.3m0,0H1155" class="g0_24"/>
<image preserveAspectRatio="none" x="646" y="696" width="19" height="19" xlink:href="img/9.png"/>
<path d="M77.2,685.5v63.4M427,685.5v63.4M639.4,685.5v63.4M760.1,685.5v63.4m395.7,-63.4v63.4M76.4,748.2H426.3m0,0H638.6m0,0H759.3m0,0H1155" class="g0_24"/>
<image preserveAspectRatio="none" x="646" y="758" width="19" height="18" xlink:href="img/10.png"/>
<path d="M77.2,747.4v42.4M427,747.4v42.4M639.4,747.4v42.4M760.1,747.4v42.4m395.7,-42.4v42.4M76.4,789H426.3m0,0H638.6m0,0H759.3m0,0H1155M77.2,788.3v15.3M427,788.3v15.3M639.4,788.3v15.3M760.1,788.3v15.3m395.7,-15.3v15.3M76.4,802.8H426.3m0,0H638.6m0,0H759.3m0,0H1155" class="g0_24"/>
<image preserveAspectRatio="none" x="227" y="859" width="46" height="30" xlink:href="img/11.png"/>
</svg>