<?xml version="1.0" encoding="UTF-8" standalone="no"?>
<!DOCTYPE svg PUBLIC "-//W3C//DTD SVG 1.1//EN"
"http://www.w3.org/Graphics/SVG/1.1/DTD/svg11.dtd">
<svg viewBox="0 0 1210 935" version="1.1" xmlns="http://www.w3.org/2000/svg" xmlns:xlink="http://www.w3.org/1999/xlink">
<defs>
<style type="text/css"><![CDATA[
.g0_25{
fill: none;
stroke: #000;
stroke-width: 1.527;
stroke-miterlimit: 10;
}
]]></style>
</defs>
<path d="M76.4,115.3H426.3m0,0H638.6m0,0H759.3m0,0H1155M77.2,114.6v36.3M427,114.6v36.3M639.4,114.6v36.3M760.1,114.6v36.3m395.7,-36.3v36.3M76.4,150.1H426.3m0,0H638.6m0,0H759.3m0,0H1155" class="g0_25"/>
<image preserveAspectRatio="none" x="646" y="157" width="19" height="18" xlink:href="img/1.png"/>
<path d="M77.2,149.4v63.4M427,149.4v63.4M639.4,149.4v63.4M760.1,149.4v63.4m395.7,-63.4v63.4M76.4,212H426.3m0,0H638.6m0,0H759.3m0,0H1155" class="g0_25"/>
<image preserveAspectRatio="none" x="646" y="222" width="19" height="18" xlink:href="img/2.png"/>
<path d="M77.2,211.3v63.4M427,211.3v63.4M639.4,211.3v63.4M760.1,211.3v63.4m395.7,-63.4v63.4M76.4,273.9H426.3m0,0H638.6m0,0H759.3m0,0H1155" class="g0_25"/>
<image preserveAspectRatio="none" x="646" y="284" width="19" height="18" xlink:href="img/3.png"/>
<path d="M77.2,273.2v63.4M427,273.2v63.4M639.4,273.2v63.4M760.1,273.2v63.4m395.7,-63.4v63.4M76.4,335.8H426.3m0,0H638.6m0,0H759.3m0,0H1155" class="g0_25"/>
<image preserveAspectRatio="none" x="646" y="346" width="19" height="18" xlink:href="img/4.png"/>
<path d="M77.2,335.1v63.4M427,335.1v63.4M639.4,335.1v63.4M760.1,335.1v63.4m395.7,-63.4v63.4M76.4,397.7H426.3m0,0H638.6m0,0H759.3m0,0H1155" class="g0_25"/>
<image preserveAspectRatio="none" x="646" y="408" width="19" height="18" xlink:href="img/5.png"/>
<path d="M77.2,397v63.4M427,397v63.4M639.4,397v63.4M760.1,397v63.4M1155.8,397v63.4M76.4,459.6H426.3m0,0H638.6m0,0H759.3m0,0H1155" class="g0_25"/>
<image preserveAspectRatio="none" x="646" y="470" width="19" height="18" xlink:href="img/6.png"/>
<path d="M77.2,458.9v63.4M427,458.9v63.4M639.4,458.9v63.4M760.1,458.9v63.4m395.7,-63.4v63.4M76.4,521.6H426.3m0,0H638.6m0,0H759.3m0,0H1155" class="g0_25"/>
<image preserveAspectRatio="none" x="646" y="531" width="19" height="19" xlink:href="img/7.png"/>
<path d="M77.2,520.8v42.4M427,520.8v42.4M639.4,520.8v42.4M760.1,520.8v42.4m395.7,-42.4v42.4M76.4,562.4H426.3m0,0H638.6m0,0H759.3m0,0H1155" class="g0_25"/>
<image preserveAspectRatio="none" x="646" y="572" width="19" height="19" xlink:href="img/8.png"/>
<path d="M77.2,561.7v63.4M427,561.7v63.4M639.4,561.7v63.4M760.1,561.7v63.4m395.7,-63.4v63.4M76.4,624.3H426.3m0,0H638.6m0,0H759.3m0,0H1155" class="g0_25"/>
<image preserveAspectRatio="none" x="646" y="634" width="19" height="19" xlink:href="img/9.png"/>
<path d="M77.2,623.6V687M427,623.6V687M639.4,623.6V687M760.1,623.6V687m395.7,-63.4V687M76.4,686.2H426.3m0,0H638.6m0,0H759.3m0,0H1155" class="g0_25"/>
<image preserveAspectRatio="none" x="646" y="696" width="19" height="19" xlink:href="img/10.png"/>
<path d="M77.2,685.5v42.4M427,685.5v42.4M639.4,685.5v42.4M760.1,685.5v42.4m395.7,-42.4v42.4M76.4,727.1H426.3m0,0H638.6m0,0H759.3m0,0H1155" class="g0_25"/>
<image preserveAspectRatio="none" x="646" y="737" width="19" height="18" xlink:href="img/11.png"/>
<path d="M77.2,726.4v63.4M427,726.4v63.4M639.4,726.4v63.4M760.1,726.4v63.4m395.7,-63.4v63.4M76.4,789H426.3m0,0H638.6m0,0H759.3m0,0H1155M77.2,788.3v15.3M427,788.3v15.3M639.4,788.3v15.3M760.1,788.3v15.3m395.7,-15.3v15.3M76.4,802.8H426.3m0,0H638.6m0,0H759.3m0,0H1155" class="g0_25"/>
<image preserveAspectRatio="none" x="227" y="859" width="46" height="30" xlink:href="img/12.png"/>
</svg>