<?xml version="1.0" encoding="UTF-8" standalone="no"?>
<!DOCTYPE svg PUBLIC "-//W3C//DTD SVG 1.1//EN"
"http://www.w3.org/Graphics/SVG/1.1/DTD/svg11.dtd">
<svg viewBox="0 0 1210 935" version="1.1" xmlns="http://www.w3.org/2000/svg" xmlns:xlink="http://www.w3.org/1999/xlink">
<defs>
<style type="text/css"><![CDATA[
.g0_10{
fill: none;
stroke: #000;
stroke-width: 1.527;
stroke-miterlimit: 10;
}
]]></style>
</defs>
<path d="M76.4,115.3H426.3m0,0H638.6m0,0H759.3m0,0H1155M77.2,114.6v36.3M427,114.6v36.3M639.4,114.6v36.3M760.1,114.6v36.3m395.7,-36.3v36.3M76.4,150.1H426.3m0,0H638.6m0,0H759.3m0,0H1155" class="g0_10"/>
<image preserveAspectRatio="none" x="646" y="157" width="19" height="18" xlink:href="img/1.png"/>
<path d="M77.2,149.4v63.4M427,149.4v63.4M639.4,149.4v63.4M760.1,149.4v63.4m395.7,-63.4v63.4M76.4,212H426.3m0,0H638.6m0,0H759.3m0,0H1155" class="g0_10"/>
<image preserveAspectRatio="none" x="646" y="225" width="19" height="18" xlink:href="img/2.png"/>
<path d="M77.2,211.3v42.4M427,211.3v42.4M639.4,211.3v42.4M760.1,211.3v42.4m395.7,-42.4v42.4M76.4,252.9H426.3m0,0H638.6m0,0H759.3m0,0H1155" class="g0_10"/>
<image preserveAspectRatio="none" x="646" y="266" width="19" height="18" xlink:href="img/3.png"/>
<path d="M77.2,252.1v63.5M427,252.1v63.5M639.4,252.1v63.5M760.1,252.1v63.5m395.7,-63.5v63.5M76.4,314.8H426.3m0,0H638.6m0,0H759.3m0,0H1155" class="g0_10"/>
<image preserveAspectRatio="none" x="646" y="328" width="19" height="18" xlink:href="img/4.png"/>
<path d="M77.2,314v42.5M427,314v42.5M639.4,314v42.5M760.1,314v42.5M1155.8,314v42.5M76.4,355.7H426.3m0,0H638.6m0,0H759.3m0,0H1155" class="g0_10"/>
<image preserveAspectRatio="none" x="646" y="369" width="19" height="18" xlink:href="img/5.png"/>
<path d="M77.2,354.9v63.5M427,354.9v63.5M639.4,354.9v63.5M760.1,354.9v63.5m395.7,-63.5v63.5M76.4,417.6H426.3m0,0H638.6m0,0H759.3m0,0H1155" class="g0_10"/>
<image preserveAspectRatio="none" x="646" y="431" width="19" height="18" xlink:href="img/6.png"/>
<path d="M77.2,416.8v63.5M427,416.8v63.5M639.4,416.8v63.5M760.1,416.8v63.5m395.7,-63.5v63.5M76.4,479.5H426.3m0,0H638.6m0,0H759.3m0,0H1155" class="g0_10"/>
<image preserveAspectRatio="none" x="646" y="492" width="19" height="19" xlink:href="img/7.png"/>
<path d="M77.2,478.7v42.5M427,478.7v42.5M639.4,478.7v42.5M760.1,478.7v42.5m395.7,-42.5v42.5M76.4,520.4H426.3m0,0H638.6m0,0H759.3m0,0H1155" class="g0_10"/>
<image preserveAspectRatio="none" x="646" y="533" width="19" height="19" xlink:href="img/8.png"/>
<path d="M77.2,519.6V562M427,519.6V562M639.4,519.6V562M760.1,519.6V562m395.7,-42.4V562M76.4,561.3H426.3m0,0H638.6m0,0H759.3m0,0H1155" class="g0_10"/>
<image preserveAspectRatio="none" x="646" y="574" width="19" height="19" xlink:href="img/9.png"/>
<path d="M77.2,560.5v42.4M427,560.5v42.4M639.4,560.5v42.4M760.1,560.5v42.4m395.7,-42.4v42.4M76.4,602.2H426.3m0,0H638.6m0,0H759.3m0,0H1155" class="g0_10"/>
<image preserveAspectRatio="none" x="646" y="615" width="19" height="18" xlink:href="img/10.png"/>
<path d="M77.2,601.4v42.4M427,601.4v42.4M639.4,601.4v42.4M760.1,601.4v42.4m395.7,-42.4v42.4M76.4,643H426.3m0,0H638.6m0,0H759.3m0,0H1155" class="g0_10"/>
<image preserveAspectRatio="none" x="646" y="656" width="19" height="18" xlink:href="img/11.png"/>
<path d="M77.2,642.3v42.4M427,642.3v42.4M639.4,642.3v42.4M760.1,642.3v42.4m395.7,-42.4v42.4M76.4,683.9H426.3m0,0H638.6m0,0H759.3m0,0H1155" class="g0_10"/>
<image preserveAspectRatio="none" x="646" y="697" width="19" height="18" xlink:href="img/12.png"/>
<path d="M77.2,683.2v63.4M427,683.2v63.4M639.4,683.2v63.4M760.1,683.2v63.4m395.7,-63.4v63.4M76.4,745.8H426.3m0,0H638.6m0,0H759.3m0,0H1155" class="g0_10"/>
<image preserveAspectRatio="none" x="646" y="759" width="19" height="18" xlink:href="img/13.png"/>
<path d="M77.2,745.1v42.4M427,745.1v42.4M639.4,745.1v42.4M760.1,745.1v42.4m395.7,-42.4v42.4M76.4,786.7H426.3m0,0H638.6m0,0H759.3m0,0H1155M77.2,786v18.3M427,786v18.3M639.4,786v18.3M760.1,786v18.3M1155.8,786v18.3M76.4,803.5H426.3m0,0H638.6m0,0H759.3m0,0H1155" class="g0_10"/>
<image preserveAspectRatio="none" x="227" y="859" width="46" height="30" xlink:href="img/14.png"/>
</svg>