<?xml version="1.0" encoding="UTF-8" standalone="no"?>
<!DOCTYPE svg PUBLIC "-//W3C//DTD SVG 1.1//EN"
"http://www.w3.org/Graphics/SVG/1.1/DTD/svg11.dtd">
<svg viewBox="0 0 1210 935" version="1.1" xmlns="http://www.w3.org/2000/svg" xmlns:xlink="http://www.w3.org/1999/xlink">
<defs>
<style type="text/css"><![CDATA[
.g0_8{
fill: none;
stroke: #000;
stroke-width: 1.527;
stroke-miterlimit: 10;
}
]]></style>
</defs>
<path d="M76.4,115.3H426.3m0,0H638.6m0,0H759.3m0,0H1155M77.2,114.6v36.3M427,114.6v36.3M639.4,114.6v36.3M760.1,114.6v36.3m395.7,-36.3v36.3M76.4,150.1H426.3m0,0H638.6m0,0H759.3m0,0H1155" class="g0_8"/>
<image preserveAspectRatio="none" x="646" y="157" width="19" height="18" xlink:href="img/1.png"/>
<path d="M77.2,149.4v63.4M427,149.4v63.4M639.4,149.4v63.4M760.1,149.4v63.4m395.7,-63.4v63.4M76.4,212H426.3m0,0H638.6m0,0H759.3m0,0H1155" class="g0_8"/>
<image preserveAspectRatio="none" x="646" y="225" width="19" height="18" xlink:href="img/2.png"/>
<path d="M77.2,211.3v42.4M427,211.3v42.4M639.4,211.3v42.4M760.1,211.3v42.4m395.7,-42.4v42.4M76.4,252.9H426.3m0,0H638.6m0,0H759.3m0,0H1155" class="g0_8"/>
<image preserveAspectRatio="none" x="646" y="266" width="19" height="18" xlink:href="img/3.png"/>
<path d="M77.2,252.1v42.5M427,252.1v42.5M639.4,252.1v42.5M760.1,252.1v42.5m395.7,-42.5v42.5M76.4,293.8H426.3m0,0H638.6m0,0H759.3m0,0H1155" class="g0_8"/>
<image preserveAspectRatio="none" x="646" y="307" width="19" height="18" xlink:href="img/4.png"/>
<path d="M77.2,293v42.4M427,293v42.4M639.4,293v42.4M760.1,293v42.4M1155.8,293v42.4M76.4,334.7H426.3m0,0H638.6m0,0H759.3m0,0H1155" class="g0_8"/>
<image preserveAspectRatio="none" x="646" y="348" width="19" height="18" xlink:href="img/5.png"/>
<path d="M77.2,333.9v42.4M427,333.9v42.4M639.4,333.9v42.4M760.1,333.9v42.4m395.7,-42.4v42.4M76.4,375.6H426.3m0,0H638.6m0,0H759.3m0,0H1155" class="g0_8"/>
<image preserveAspectRatio="none" x="646" y="389" width="19" height="18" xlink:href="img/6.png"/>
<path d="M77.2,374.8v63.4M427,374.8v63.4M639.4,374.8v63.4M760.1,374.8v63.4m395.7,-63.4v63.4M76.4,437.5H426.3m0,0H638.6m0,0H759.3m0,0H1155" class="g0_8"/>
<image preserveAspectRatio="none" x="646" y="450" width="19" height="19" xlink:href="img/7.png"/>
<path d="M77.2,436.7v42.4M427,436.7v42.4M639.4,436.7v42.4M760.1,436.7v42.4m395.7,-42.4v42.4M76.4,478.3H426.3m0,0H638.6m0,0H759.3m0,0H1155" class="g0_8"/>
<image preserveAspectRatio="none" x="646" y="491" width="19" height="19" xlink:href="img/8.png"/>
<path d="M77.2,477.6V520M427,477.6V520M639.4,477.6V520M760.1,477.6V520m395.7,-42.4V520M76.4,519.2H426.3m0,0H638.6m0,0H759.3m0,0H1155" class="g0_8"/>
<image preserveAspectRatio="none" x="646" y="532" width="19" height="19" xlink:href="img/9.png"/>
<path d="M77.2,518.5v63.4M427,518.5v63.4M639.4,518.5v63.4M760.1,518.5v63.4m395.7,-63.4v63.4M76.4,581.1H426.3m0,0H638.6m0,0H759.3m0,0H1155" class="g0_8"/>
<image preserveAspectRatio="none" x="646" y="594" width="19" height="18" xlink:href="img/10.png"/>
<path d="M77.2,580.4v42.4M427,580.4v42.4M639.4,580.4v42.4M760.1,580.4v42.4m395.7,-42.4v42.4M76.4,622H426.3m0,0H638.6m0,0H759.3m0,0H1155" class="g0_8"/>
<image preserveAspectRatio="none" x="646" y="635" width="19" height="18" xlink:href="img/11.png"/>
<path d="M77.2,621.3v42.4M427,621.3v42.4M639.4,621.3v42.4M760.1,621.3v42.4m395.7,-42.4v42.4M76.4,662.9H426.3m0,0H638.6m0,0H759.3m0,0H1155" class="g0_8"/>
<image preserveAspectRatio="none" x="646" y="676" width="19" height="18" xlink:href="img/12.png"/>
<path d="M77.2,662.1v42.5M427,662.1v42.5M639.4,662.1v42.5M760.1,662.1v42.5m395.7,-42.5v42.5M76.4,703.8H426.3m0,0H638.6m0,0H759.3m0,0H1155" class="g0_8"/>
<image preserveAspectRatio="none" x="646" y="717" width="19" height="18" xlink:href="img/13.png"/>
<path d="M77.2,703v42.4M427,703v42.4M639.4,703v42.4M760.1,703v42.4M1155.8,703v42.4M76.4,744.7H426.3m0,0H638.6m0,0H759.3m0,0H1155" class="g0_8"/>
<image preserveAspectRatio="none" x="646" y="758" width="19" height="18" xlink:href="img/14.png"/>
<path d="M77.2,743.9v63.4M427,743.9v63.4M639.4,743.9v63.4M760.1,743.9v63.4m395.7,-63.4v63.4M76.4,806.6H426.3m0,0H638.6m0,0H759.3m0,0H1155M77.2,805.8v18.3M427,805.8v18.3M639.4,805.8v18.3M760.1,805.8v18.3m395.7,-18.3v18.3M76.4,823.4H426.3m0,0H638.6m0,0H759.3m0,0H1155" class="g0_8"/>
<image preserveAspectRatio="none" x="227" y="859" width="46" height="30" xlink:href="img/15.png"/>
</svg>