<?xml version="1.0" encoding="UTF-8" standalone="no"?>
<!DOCTYPE svg PUBLIC "-//W3C//DTD SVG 1.1//EN"
"http://www.w3.org/Graphics/SVG/1.1/DTD/svg11.dtd">
<svg viewBox="0 0 1210 935" version="1.1" xmlns="http://www.w3.org/2000/svg" xmlns:xlink="http://www.w3.org/1999/xlink">
<defs>
<style type="text/css"><![CDATA[
.g0_14{
fill: none;
stroke: #000;
stroke-width: 1.527;
stroke-miterlimit: 10;
}
]]></style>
</defs>
<path d="M76.4,115.3H426.3m0,0H638.6m0,0H759.3m0,0H1155M77.2,114.6v36.3M427,114.6v36.3M639.4,114.6v36.3M760.1,114.6v36.3m395.7,-36.3v36.3M76.4,150.1H426.3m0,0H638.6m0,0H759.3m0,0H1155" class="g0_14"/>
<image preserveAspectRatio="none" x="646" y="157" width="19" height="18" xlink:href="img/1.png"/>
<path d="M77.2,149.4v42.4M427,149.4v42.4M639.4,149.4v42.4M760.1,149.4v42.4m395.7,-42.4v42.4M76.4,191H426.3m0,0H638.6m0,0H759.3m0,0H1155" class="g0_14"/>
<image preserveAspectRatio="none" x="646" y="204" width="19" height="18" xlink:href="img/2.png"/>
<path d="M77.2,190.2v42.5M427,190.2v42.5M639.4,190.2v42.5M760.1,190.2v42.5m395.7,-42.5v42.5M76.4,231.9H426.3m0,0H638.6m0,0H759.3m0,0H1155" class="g0_14"/>
<image preserveAspectRatio="none" x="646" y="245" width="19" height="18" xlink:href="img/3.png"/>
<path d="M77.2,231.1v42.4M427,231.1v42.4M639.4,231.1v42.4M760.1,231.1v42.4m395.7,-42.4v42.4M76.4,272.8H426.3m0,0H638.6m0,0H759.3m0,0H1155" class="g0_14"/>
<image preserveAspectRatio="none" x="646" y="286" width="19" height="18" xlink:href="img/4.png"/>
<path d="M77.2,272v42.4M427,272v42.4M639.4,272v42.4M760.1,272v42.4M1155.8,272v42.4M76.4,313.7H426.3m0,0H638.6m0,0H759.3m0,0H1155" class="g0_14"/>
<image preserveAspectRatio="none" x="646" y="327" width="19" height="18" xlink:href="img/5.png"/>
<path d="M77.2,312.9v42.4M427,312.9v42.4M639.4,312.9v42.4M760.1,312.9v42.4m395.7,-42.4v42.4M76.4,354.5H426.3m0,0H638.6m0,0H759.3m0,0H1155" class="g0_14"/>
<image preserveAspectRatio="none" x="646" y="368" width="19" height="18" xlink:href="img/6.png"/>
<path d="M77.2,353.8v63.4M427,353.8v63.4M639.4,353.8v63.4M760.1,353.8v63.4m395.7,-63.4v63.4M76.4,416.4H426.3m0,0H638.6m0,0H759.3m0,0H1155" class="g0_14"/>
<image preserveAspectRatio="none" x="646" y="429" width="19" height="19" xlink:href="img/7.png"/>
<path d="M77.2,415.7v63.4M427,415.7v63.4M639.4,415.7v63.4M760.1,415.7v63.4m395.7,-63.4v63.4M76.4,478.3H426.3m0,0H638.6m0,0H759.3m0,0H1155" class="g0_14"/>
<image preserveAspectRatio="none" x="646" y="491" width="19" height="19" xlink:href="img/8.png"/>
<path d="M77.2,477.6V541M427,477.6V541M639.4,477.6V541M760.1,477.6V541m395.7,-63.4V541M76.4,540.3H426.3m0,0H638.6m0,0H759.3m0,0H1155" class="g0_14"/>
<image preserveAspectRatio="none" x="646" y="553" width="19" height="19" xlink:href="img/9.png"/>
<path d="M77.2,539.5v42.4M427,539.5v42.4M639.4,539.5v42.4M760.1,539.5v42.4m395.7,-42.4v42.4M76.4,581.1H426.3m0,0H638.6m0,0H759.3m0,0H1155" class="g0_14"/>
<image preserveAspectRatio="none" x="646" y="594" width="19" height="18" xlink:href="img/10.png"/>
<path d="M77.2,580.4v42.4M427,580.4v42.4M639.4,580.4v42.4M760.1,580.4v42.4m395.7,-42.4v42.4M76.4,622H426.3m0,0H638.6m0,0H759.3m0,0H1155" class="g0_14"/>
<image preserveAspectRatio="none" x="646" y="635" width="19" height="18" xlink:href="img/11.png"/>
<path d="M77.2,621.3v63.4M427,621.3v63.4M639.4,621.3v63.4M760.1,621.3v63.4m395.7,-63.4v63.4M76.4,683.9H426.3m0,0H638.6m0,0H759.3m0,0H1155" class="g0_14"/>
<image preserveAspectRatio="none" x="646" y="697" width="19" height="18" xlink:href="img/12.png"/>
<path d="M77.2,683.2v63.4M427,683.2v63.4M639.4,683.2v63.4M760.1,683.2v63.4m395.7,-63.4v63.4M76.4,745.8H426.3m0,0H638.6m0,0H759.3m0,0H1155" class="g0_14"/>
<image preserveAspectRatio="none" x="646" y="759" width="19" height="18" xlink:href="img/13.png"/>
<path d="M77.2,745.1v63.4M427,745.1v63.4M639.4,745.1v63.4M760.1,745.1v63.4m395.7,-63.4v63.4M76.4,807.7H426.3m0,0H638.6m0,0H759.3m0,0H1155M77.2,807v18.3M427,807v18.3M639.4,807v18.3M760.1,807v18.3M1155.8,807v18.3M76.4,824.5H426.3m0,0H638.6m0,0H759.3m0,0H1155" class="g0_14"/>
<image preserveAspectRatio="none" x="227" y="859" width="46" height="30" xlink:href="img/14.png"/>
</svg>