<?xml version="1.0" encoding="UTF-8" standalone="no"?>
<!DOCTYPE svg PUBLIC "-//W3C//DTD SVG 1.1//EN"
"http://www.w3.org/Graphics/SVG/1.1/DTD/svg11.dtd">
<svg viewBox="0 0 935 1210" version="1.1" xmlns="http://www.w3.org/2000/svg" xmlns:xlink="http://www.w3.org/1999/xlink">
<defs>
<style type="text/css"><![CDATA[
.g0_5{
fill: none;
stroke: #000;
stroke-width: 1.527;
stroke-miterlimit: 10;
}
]]></style>
</defs>
<path d="M91.7,312.9H365.1m0,0H541.4m0,0H753.8M92.4,312.2V353M365.9,312.2V353M542.2,312.2V353M754.5,312.2V353M91.7,352.2H365.1m0,0H541.4m0,0H753.8M92.4,351.4v40.9M365.9,351.4v40.9M542.2,351.4v40.9M754.5,351.4v40.9M91.7,391.5H365.1m0,0H541.4m0,0H753.8M92.4,390.7v40.9M365.9,390.7v40.9M542.2,390.7v40.9M754.5,390.7v40.9M91.7,430.8H365.1m0,0H541.4m0,0H753.8M92.4,430v40.9M365.9,430v40.9M542.2,430v40.9M754.5,430v40.9M91.7,470.1H365.1m0,0H541.4m0,0H753.8M92.4,469.3v40.9M365.9,469.3v40.9M542.2,469.3v40.9M754.5,469.3v40.9M91.7,509.4H365.1m0,0H541.4m0,0H753.8M92.4,508.6v40.9M365.9,508.6v40.9M542.2,508.6v40.9M754.5,508.6v40.9M91.7,548.7H365.1m0,0H541.4m0,0H753.8M92.4,547.9v40.8M365.9,547.9v40.8M542.2,547.9v40.8M754.5,547.9v40.8M91.7,588H365.1m0,0H541.4m0,0H753.8" class="g0_5"/>
<image preserveAspectRatio="none" x="186" y="1134" width="46" height="30" xlink:href="img/1.png"/>
</svg>